<svg width="17" height="16" viewBox="0 0 17 16" fill="none" xmlns="http://www.w3.org/2000/svg">
<path d="M6.25 13H4.75C3.82174 13 2.9315 12.6313 2.27513 11.9749C1.61875 11.3185 1.25 10.4283 1.25 9.5C1.25 8.57174 1.61875 7.6815 2.27513 7.02513C2.9315 6.36875 3.82174 6 4.75 6C5.04283 5.99989 5.33458 6.03557 5.61875 6.10625" stroke="#737780" stroke-linecap="round" stroke-linejoin="round"/>
<path d="M5.25 8C5.25 7.20774 5.43827 6.42682 5.79928 5.7216C6.1603 5.01637 6.68373 4.40703 7.32645 3.94379C7.96916 3.48055 8.71276 3.17667 9.49596 3.05719C10.2792 2.93771 11.0795 3.00605 11.8311 3.25658C12.5827 3.50712 13.2641 3.93267 13.8189 4.49817C14.3738 5.06368 14.7863 5.75294 15.0226 6.50916C15.2588 7.26539 15.3119 8.06692 15.1776 8.84771C15.0433 9.6285 14.7254 10.3662 14.25 11" stroke="#737780" stroke-linecap="round" stroke-linejoin="round"/>
<path d="M7.63086 10.1187L9.74961 8L11.8684 10.1187" stroke="#737780" stroke-linecap="round" stroke-linejoin="round"/>
<path d="M9.75 13V8" stroke="#737780" stroke-linecap="round" stroke-linejoin="round"/>
</svg>
