<svg width="32" height="32" viewBox="0 0 32 32" fill="none" xmlns="http://www.w3.org/2000/svg">
<rect width="32" height="32" rx="6" fill="#0A0A0A" fill-opacity="0.2"/>
<path d="M12.9589 24H8.70841C8.52053 24 8.34034 23.9254 8.20749 23.7925C8.07464 23.6597 8 23.4795 8 23.2916V19.3334C7.99968 19.2414 8.0175 19.1502 8.05245 19.0651C8.0874 18.98 8.13879 18.9027 8.20367 18.8375L18.8298 8.21134C18.8957 8.1444 18.9743 8.09125 19.0609 8.05497C19.1476 8.01868 19.2406 8 19.3345 8C19.4285 8 19.5215 8.01868 19.6081 8.05497C19.6948 8.09125 19.7734 8.1444 19.8393 8.21134L23.7887 12.1607C23.8556 12.2266 23.9088 12.3052 23.945 12.3919C23.9813 12.4785 24 12.5715 24 12.6655C24 12.7594 23.9813 12.8524 23.945 12.9391C23.9088 13.0257 23.8556 13.1043 23.7887 13.1702L12.9589 24Z" stroke="#999EA7" stroke-linecap="round" stroke-linejoin="round"/>
<path d="M16.9512 10.6641L20.9512 14.6641" stroke="#999EA7" stroke-linecap="round" stroke-linejoin="round"/>
<path d="M23.6178 24H12.9512" stroke="#999EA7" stroke-linecap="round" stroke-linejoin="round"/>
</svg>
