<svg width="16" height="16" viewBox="0 0 16 16" fill="none" xmlns="http://www.w3.org/2000/svg">
    <path
        d="M1.63472 7.24425C1.63472 7.24425 3.08135 5.05547 5.96978 4.82903V4.03495C2.77047 4.29843 0 7.07714 0 7.07714C0 7.07714 1.56915 11.7289 5.96978 12.1548V11.3107C2.74039 10.8941 1.63472 7.24425 1.63472 7.24425ZM5.96978 9.63211V10.4051C3.52908 9.95888 2.8516 7.35711 2.8516 7.35711C2.8516 7.35711 4.02348 6.02583 5.96978 5.80994V6.65815C5.9683 6.65815 5.96727 6.65769 5.96605 6.65769C4.94453 6.53197 4.14652 7.51057 4.14652 7.51057C4.14652 7.51057 4.5938 9.15801 5.96978 9.63211ZM5.96978 2.57031V4.03495C6.0637 4.02756 6.15761 4.0213 6.25205 4.01801C9.88931 3.89229 12.2592 7.07714 12.2592 7.07714C12.2592 7.07714 9.5373 10.4713 6.70151 10.4713C6.44162 10.4713 6.19831 10.4466 5.96978 10.405V11.3107C6.1652 11.3362 6.36782 11.3511 6.57925 11.3511C9.21813 11.3511 11.1265 9.9691 12.9744 8.3334C13.2808 8.58502 14.5351 9.19717 14.7929 9.46513C13.0359 10.9736 8.94114 12.1896 6.61968 12.1896C6.39591 12.1896 6.18101 12.1757 5.96978 12.1548V13.4275H16V2.57031H5.96978ZM5.96978 5.80994V4.82903C6.06273 4.82238 6.15639 4.8173 6.25205 4.8142C8.8676 4.72995 10.5836 7.11913 10.5836 7.11913C10.5836 7.11913 8.73016 9.75881 6.74291 9.75881C6.45692 9.75881 6.20055 9.71168 5.96978 9.63211V6.65815C6.98802 6.78432 7.19289 7.24557 7.80506 8.29207L9.16658 7.11478C9.16658 7.11478 8.1727 5.7781 6.49729 5.7781C6.31517 5.77803 6.1409 5.79115 5.96978 5.80994Z"
        fill="#77B900" />
</svg>