<svg width="20" height="16" viewBox="0 0 20 16" fill="none" xmlns="http://www.w3.org/2000/svg">
<path d="M1.25 14.6809V2.0309C1.25 1.84452 1.32404 1.66576 1.45584 1.53396C1.58764 1.40217 1.76639 1.32812 1.95278 1.32812H6.63505C6.78701 1.32875 6.93477 1.37801 7.05672 1.46868L9.49887 3.29591C9.62082 3.38658 9.76858 3.43584 9.92054 3.43646H16.0084C16.1948 3.43646 16.3735 3.51051 16.5053 3.6423C16.6371 3.7741 16.7111 3.95285 16.7111 4.13924V6.24758" stroke="#737780" stroke-linecap="round" stroke-linejoin="round"/>
<path d="M1.25 14.6755L3.88542 8.08698C3.93682 7.95674 4.02641 7.84508 4.14244 7.76669C4.25846 7.6883 4.39548 7.64683 4.53549 7.64775H8.76974C8.90669 7.64629 9.04052 7.60674 9.15627 7.53354L10.9132 6.35639C11.029 6.28319 11.1628 6.24365 11.2997 6.24219H18.5472C18.6583 6.24218 18.7678 6.26852 18.8668 6.31906C18.9658 6.36959 19.0514 6.44288 19.1165 6.5329C19.1817 6.62292 19.2246 6.72711 19.2416 6.83692C19.2587 6.94673 19.2495 7.05902 19.2148 7.16459L16.7112 14.6755H1.25Z" stroke="#737780" stroke-linecap="round" stroke-linejoin="round"/>
</svg>
