<svg width="24" height="24" viewBox="0 0 24 24" fill="none" xmlns="http://www.w3.org/2000/svg">
<path fill-rule="evenodd" clip-rule="evenodd" d="M21.999 12.2356C21.999 11.5121 21.9341 10.8163 21.8135 10.1484H12.2031V14.0956H17.6948C17.4582 15.3711 16.7393 16.4518 15.6586 17.1753V19.7356H18.9564C20.8859 17.9592 21.999 15.3432 21.999 12.2356Z" fill="white"/>
<path fill-rule="evenodd" clip-rule="evenodd" d="M12.2066 22.2028C14.9617 22.2028 17.2716 21.2891 18.9599 19.7306L15.6621 17.1703C14.7484 17.7826 13.5795 18.1444 12.2066 18.1444C9.54893 18.1444 7.29939 16.3494 6.49698 13.9375H3.08789V16.5813C4.76693 19.9162 8.21776 22.2028 12.2066 22.2028Z" fill="white"/>
<path fill-rule="evenodd" clip-rule="evenodd" d="M6.49444 13.9432C6.29035 13.331 6.1744 12.677 6.1744 12.0044C6.1744 11.3319 6.29035 10.6779 6.49444 10.0657V7.42188H3.08534C2.39425 8.79943 2 10.3579 2 12.0044C2 13.651 2.39425 15.2094 3.08534 16.587L6.49444 13.9432Z" fill="white"/>
<path fill-rule="evenodd" clip-rule="evenodd" d="M12.2066 5.85532C13.7048 5.85532 15.0499 6.37016 16.1074 7.38129L19.0341 4.45458C17.2669 2.80801 14.9571 1.79688 12.2066 1.79688C8.21776 1.79688 4.76693 4.08352 3.08789 7.4184L6.49698 10.0622C7.29939 7.65031 9.54893 5.85532 12.2066 5.85532Z" fill="white"/>
</svg>
