<svg width="36" height="36" viewBox="0 0 36 36" fill="none" xmlns="http://www.w3.org/2000/svg">
<path d="M14.541 26.9984L24.1598 14.4688" stroke="#C6E350" stroke-linecap="round" stroke-linejoin="round"/>
<path d="M3.375 25.8751V22.6548C3.375 14.5689 9.87187 7.90323 17.9437 7.87511C19.8691 7.8677 21.7769 8.24052 23.5578 8.97218C25.3387 9.70384 26.9575 10.7799 28.3216 12.1387C29.6856 13.4975 30.7679 15.1123 31.5064 16.8903C32.2449 18.6684 32.625 20.5748 32.625 22.5001V25.8751C32.625 26.1735 32.5065 26.4596 32.2955 26.6706C32.0845 26.8816 31.7984 27.0001 31.5 27.0001H4.5C4.20163 27.0001 3.91548 26.8816 3.7045 26.6706C3.49353 26.4596 3.375 26.1735 3.375 25.8751Z" stroke="#4A4B4D" stroke-linecap="round" stroke-linejoin="round"/>
<path d="M18 7.875V12.375" stroke="#4A4B4D" stroke-linecap="round" stroke-linejoin="round"/>
<path d="M3.86719 18.7188L8.22656 19.8859" stroke="#4A4B4D" stroke-linecap="round" stroke-linejoin="round"/>
<path d="M32.1328 18.7188L27.7734 19.8859" stroke="#4A4B4D" stroke-linecap="round" stroke-linejoin="round"/>
</svg>
