<svg width="17" height="16" viewBox="0 0 17 16" fill="none" xmlns="http://www.w3.org/2000/svg">
<path d="M13.75 3.5H2.75" stroke="#737780" stroke-linecap="round" stroke-linejoin="round"/>
<path d="M6.75 6.5V10.5" stroke="#737780" stroke-linecap="round" stroke-linejoin="round"/>
<path d="M9.75 6.5V10.5" stroke="#737780" stroke-linecap="round" stroke-linejoin="round"/>
<path d="M12.75 3.5V13C12.75 13.1326 12.6973 13.2598 12.6036 13.3536C12.5098 13.4473 12.3826 13.5 12.25 13.5H4.25C4.11739 13.5 3.99021 13.4473 3.89645 13.3536C3.80268 13.2598 3.75 13.1326 3.75 13V3.5" stroke="#737780" stroke-linecap="round" stroke-linejoin="round"/>
<path d="M10.75 3.5V2.5C10.75 2.23478 10.6446 1.98043 10.4571 1.79289C10.2696 1.60536 10.0152 1.5 9.75 1.5H6.75C6.48478 1.5 6.23043 1.60536 6.04289 1.79289C5.85536 1.98043 5.75 2.23478 5.75 2.5V3.5" stroke="#737780" stroke-linecap="round" stroke-linejoin="round"/>
</svg>
