<svg width="15" height="18" viewBox="0 0 15 18" fill="none" xmlns="http://www.w3.org/2000/svg">
<path d="M2.58398 16.9974H1.25065C1.07384 16.9974 0.904271 16.9272 0.779247 16.8021C0.654222 16.6771 0.583984 16.5075 0.583984 16.3307V13.6641" stroke="#505359" stroke-linecap="round" stroke-linejoin="round"/>
<path d="M6.58398 1H9.25065L13.9173 5.66667V9.66667" stroke="#505359" stroke-linecap="round" stroke-linejoin="round"/>
<path d="M0.583984 3.66667V1.66667C0.583984 1.48986 0.654222 1.32029 0.779247 1.19526C0.904271 1.07024 1.07384 1 1.25065 1H3.25065" stroke="#505359" stroke-linecap="round" stroke-linejoin="round"/>
<path d="M9.25 1V5.66667H13.9167" stroke="#505359" stroke-linecap="round" stroke-linejoin="round"/>
<path d="M13.9173 13V16.3333C13.9173 16.5101 13.8471 16.6797 13.7221 16.8047C13.597 16.9298 13.4275 17 13.2507 17H12.584" stroke="#505359" stroke-linecap="round" stroke-linejoin="round"/>
<path d="M0.583984 7V10.3333" stroke="#505359" stroke-linecap="round" stroke-linejoin="round"/>
<path d="M5.91797 17H9.2513" stroke="#505359" stroke-linecap="round" stroke-linejoin="round"/>
</svg>
