<svg width="24" height="22" viewBox="0 0 24 22" fill="none" xmlns="http://www.w3.org/2000/svg">
<g clip-path="url(#clip0_2721_10792)">
<path d="M8.87108 6.71374L11.3637 9.46305C11.7129 9.84867 11.9117 10.3009 11.9628 10.7642C12.0139 10.3009 12.2126 9.84867 12.5618 9.46305L15.0573 6.71374C15.6052 6.10895 16.4456 5.75662 17.337 5.75662H23.6254V0C19.3527 0 15.6336 2.32762 13.7286 5.75385H10.265C8.3629 2.32762 4.6438 0 0.371094 0V5.75385H6.5942C7.48281 5.75385 8.32315 6.10618 8.87108 6.71097V6.71374Z" fill="url(#paint0_linear_2721_10792)"/>
<path d="M15.0601 15.2926L12.5646 12.5433C12.2154 12.1577 12.0167 11.7055 11.9656 11.2422C11.9145 11.7055 11.7158 12.1577 11.3666 12.5433L8.87392 15.2926C8.32599 15.8974 7.48565 16.2498 6.59704 16.2498H0.371094V22.0036C4.6438 22.0036 8.3629 19.676 10.2679 16.2498H13.7315C15.6393 19.6788 19.3555 22.0036 23.6282 22.0036V16.2498H17.3398C16.4484 16.2498 15.608 15.8974 15.0601 15.2926Z" fill="url(#paint1_linear_2721_10792)"/>
</g>
<defs>
<linearGradient id="paint0_linear_2721_10792" x1="11.9982" y1="8.24491" x2="11.9982" y2="2.51928" gradientUnits="userSpaceOnUse">
<stop stop-color="#E6E8EC"/>
<stop offset="1" stop-color="#C1C5CE"/>
</linearGradient>
<linearGradient id="paint1_linear_2721_10792" x1="12.5271" y1="13.7608" x2="12.5271" y2="19.5995" gradientUnits="userSpaceOnUse">
<stop stop-color="#E6E8EC"/>
<stop offset="1" stop-color="#C1C5CE"/>
</linearGradient>
<clipPath id="clip0_2721_10792">
<rect width="23.2571" height="22" fill="white" transform="translate(0.371094)"/>
</clipPath>
</defs>
</svg>
