<svg width="111" height="24" viewBox="0 0 111 24" fill="none" xmlns="http://www.w3.org/2000/svg">
    <g clip-path="url(#clip0_2195_14582)">
        <path
            d="M9.27271 7.32409L11.992 10.3233C12.3729 10.744 12.5897 11.2373 12.6455 11.7427C12.7012 11.2373 12.918 10.744 13.2989 10.3233L16.0213 7.32409C16.619 6.66431 17.5358 6.27995 18.5083 6.27995H25.3683V0C20.7072 0 16.65 2.53922 14.5718 6.27692H10.7934C8.71833 2.53922 4.66113 0 0 0V6.27692H6.78884C7.75823 6.27692 8.67497 6.66129 9.27271 7.32106V7.32409Z"
            fill="url(#paint0_linear_2195_14582)" />
        <path
            d="M16.0244 16.6765L13.302 13.6772C12.9211 13.2566 12.7043 12.7632 12.6486 12.2578C12.5928 12.7632 12.376 13.2566 11.9951 13.6772L9.27581 16.6765C8.67807 17.3362 7.76133 17.7206 6.79194 17.7206H0V23.9975C4.66113 23.9975 8.71833 21.4583 10.7965 17.7206H14.5749C16.6562 21.4613 20.7103 23.9975 25.3714 23.9975V17.7206H18.5114C17.5389 17.7206 16.6221 17.3362 16.0244 16.6765Z"
            fill="url(#paint1_linear_2195_14582)" />
    </g>
    <path
        d="M103.759 20.402C99.7265 20.402 97.0455 17.4753 97.0567 13.074V3.91406H100.363V13.074C100.352 15.6991 101.637 17.2742 103.759 17.2742C105.882 17.2742 107.166 15.6991 107.177 13.074V3.91406H110.484V13.074C110.473 17.4753 107.792 20.402 103.759 20.402Z"
        fill="white" />
    <path
        d="M103.759 20.402C99.7265 20.402 97.0455 17.4753 97.0567 13.074V3.91406H100.363V13.074C100.352 15.6991 101.637 17.2742 103.759 17.2742C105.882 17.2742 107.166 15.6991 107.177 13.074V3.91406H110.484V13.074C110.473 17.4753 107.792 20.402 103.759 20.402Z"
        fill="url(#paint2_linear_2195_14582)" />
    <path
        d="M83.2871 20.0892V3.91406H88.8278C92.5141 3.91406 95.0387 6.09235 95.0387 9.25366C95.0387 12.4373 92.5141 14.6156 88.8278 14.6156H86.5936V20.0892H83.2871ZM86.5936 11.5995H88.8725C90.6486 11.5995 91.7098 10.717 91.7098 9.25366C91.7098 7.80147 90.6486 6.93015 88.8725 6.93015H86.5936V11.5995Z"
        fill="white" />
    <path
        d="M83.2871 20.0892V3.91406H88.8278C92.5141 3.91406 95.0387 6.09235 95.0387 9.25366C95.0387 12.4373 92.5141 14.6156 88.8278 14.6156H86.5936V20.0892H83.2871ZM86.5936 11.5995H88.8725C90.6486 11.5995 91.7098 10.717 91.7098 9.25366C91.7098 7.80147 90.6486 6.93015 88.8725 6.93015H86.5936V11.5995Z"
        fill="url(#paint3_linear_2195_14582)" />
    <path
        d="M73.4468 20.4023C68.5987 20.4023 64.9459 16.783 64.9571 12.0019C64.9459 7.22087 68.5875 3.60156 73.4244 3.60156C76.1948 3.60156 78.4848 4.808 79.9258 6.66233L77.3342 8.60604C76.3177 7.29906 75.033 6.72936 73.4244 6.72936C70.3972 6.72936 68.2748 8.90764 68.2859 12.0019C68.2748 15.0962 70.4084 17.2745 73.4468 17.2745C75.7591 17.2745 77.3677 16.0122 77.8034 14.0127H73.7596V11.2647H81.0205C81.1211 11.812 81.1769 12.3594 81.1769 12.8956C81.1769 17.3527 77.9151 20.4023 73.4468 20.4023Z"
        fill="white" />
    <path
        d="M73.4468 20.4023C68.5987 20.4023 64.9459 16.783 64.9571 12.0019C64.9459 7.22087 68.5875 3.60156 73.4244 3.60156C76.1948 3.60156 78.4848 4.808 79.9258 6.66233L77.3342 8.60604C76.3177 7.29906 75.033 6.72936 73.4244 6.72936C70.3972 6.72936 68.2748 8.90764 68.2859 12.0019C68.2748 15.0962 70.4084 17.2745 73.4468 17.2745C75.7591 17.2745 77.3677 16.0122 77.8034 14.0127H73.7596V11.2647H81.0205C81.1211 11.812 81.1769 12.3594 81.1769 12.8956C81.1769 17.3527 77.9151 20.4023 73.4468 20.4023Z"
        fill="url(#paint4_linear_2195_14582)" />
    <path
        d="M51.6992 20.0892V3.91406H57.2399C60.9262 3.91406 63.4508 6.09235 63.4508 9.25366C63.4508 12.4373 60.9262 14.6156 57.2399 14.6156H55.0057V20.0892H51.6992ZM55.0057 11.5995H57.2846C59.0607 11.5995 60.1219 10.717 60.1219 9.25366C60.1219 7.80147 59.0607 6.93015 57.2846 6.93015H55.0057V11.5995Z"
        fill="white" />
    <path
        d="M51.6992 20.0892V3.91406H57.2399C60.9262 3.91406 63.4508 6.09235 63.4508 9.25366C63.4508 12.4373 60.9262 14.6156 57.2399 14.6156H55.0057V20.0892H51.6992ZM55.0057 11.5995H57.2846C59.0607 11.5995 60.1219 10.717 60.1219 9.25366C60.1219 7.80147 59.0607 6.93015 57.2846 6.93015H55.0057V11.5995Z"
        fill="url(#paint5_linear_2195_14582)" />
    <path
        d="M41.8609 20.4023C37.0128 20.4023 33.3599 16.783 33.3711 12.0019C33.3599 7.22087 37.0016 3.60156 41.8385 3.60156C44.6088 3.60156 46.8988 4.808 48.3399 6.66233L45.7483 8.60604C44.7317 7.29906 43.4471 6.72936 41.8385 6.72936C38.8113 6.72936 36.6888 8.90764 36.7 12.0019C36.6888 15.0962 38.8224 17.2745 41.8609 17.2745C44.1732 17.2745 45.7818 16.0122 46.2174 14.0127H42.1736V11.2647H49.4346C49.5351 11.812 49.591 12.3594 49.591 12.8956C49.591 17.3527 46.3291 20.4023 41.8609 20.4023Z"
        fill="white" />
    <path
        d="M41.8609 20.4023C37.0128 20.4023 33.3599 16.783 33.3711 12.0019C33.3599 7.22087 37.0016 3.60156 41.8385 3.60156C44.6088 3.60156 46.8988 4.808 48.3399 6.66233L45.7483 8.60604C44.7317 7.29906 43.4471 6.72936 41.8385 6.72936C38.8113 6.72936 36.6888 8.90764 36.7 12.0019C36.6888 15.0962 38.8224 17.2745 41.8609 17.2745C44.1732 17.2745 45.7818 16.0122 46.2174 14.0127H42.1736V11.2647H49.4346C49.5351 11.812 49.591 12.3594 49.591 12.8956C49.591 17.3527 46.3291 20.4023 41.8609 20.4023Z"
        fill="url(#paint6_linear_2195_14582)" />
    <defs>
        <linearGradient id="paint0_linear_2195_14582" x1="12.6842" y1="8.99444" x2="12.6842" y2="2.7483"
            gradientUnits="userSpaceOnUse">
            <stop stop-color="#E6E8EC" />
            <stop offset="1" stop-color="#C1C5CE" />
        </linearGradient>
        <linearGradient id="paint1_linear_2195_14582" x1="13.2611" y1="15.0054" x2="13.2611" y2="21.3748"
            gradientUnits="userSpaceOnUse">
            <stop stop-color="#E6E8EC" />
            <stop offset="1" stop-color="#C1C5CE" />
        </linearGradient>
        <linearGradient id="paint2_linear_2195_14582" x1="73.9727" y1="3.09836" x2="73.9727" y2="21.7168"
            gradientUnits="userSpaceOnUse">
            <stop stop-color="#E6E8EC" />
            <stop offset="1" stop-color="#C1C5CE" />
        </linearGradient>
        <linearGradient id="paint3_linear_2195_14582" x1="73.9742" y1="3.09836" x2="73.9742" y2="21.7168"
            gradientUnits="userSpaceOnUse">
            <stop stop-color="#E6E8EC" />
            <stop offset="1" stop-color="#C1C5CE" />
        </linearGradient>
        <linearGradient id="paint4_linear_2195_14582" x1="73.9731" y1="3.09864" x2="73.9731" y2="21.7171"
            gradientUnits="userSpaceOnUse">
            <stop stop-color="#E6E8EC" />
            <stop offset="1" stop-color="#C1C5CE" />
        </linearGradient>
        <linearGradient id="paint5_linear_2195_14582" x1="73.9729" y1="3.09836" x2="73.9729" y2="21.7168"
            gradientUnits="userSpaceOnUse">
            <stop stop-color="#E6E8EC" />
            <stop offset="1" stop-color="#C1C5CE" />
        </linearGradient>
        <linearGradient id="paint6_linear_2195_14582" x1="73.9734" y1="3.09864" x2="73.9734" y2="21.7171"
            gradientUnits="userSpaceOnUse">
            <stop stop-color="#E6E8EC" />
            <stop offset="1" stop-color="#C1C5CE" />
        </linearGradient>
        <clipPath id="clip0_2195_14582">
            <rect width="25.3714" height="24" fill="white" />
        </clipPath>
    </defs>
</svg>