<svg width="16" height="16" viewBox="0 0 16 16" fill="none" xmlns="http://www.w3.org/2000/svg">
<path d="M11.9586 7.72024C11.9731 6.59957 12.5749 5.53918 13.5297 4.9522C12.9274 4.09199 11.9185 3.54659 10.8689 3.51375C9.7494 3.39624 8.6641 4.18363 8.09363 4.18363C7.51211 4.18363 6.63378 3.52541 5.68796 3.54487C4.45512 3.5847 3.30581 4.28562 2.70601 5.36345C1.41668 7.59573 2.3784 10.8764 3.61348 12.6808C4.23141 13.5644 4.9536 14.5514 5.89857 14.5164C6.82327 14.478 7.16863 13.9267 8.28483 13.9267C9.39067 13.9267 9.71469 14.5164 10.6788 14.4941C11.6711 14.478 12.2963 13.6066 12.8925 12.7147C13.3365 12.0851 13.6781 11.3893 13.9048 10.653C12.7387 10.1598 11.96 8.98633 11.9586 7.72024Z" fill="#E5E5E5"/>
<path d="M10.1375 2.32708C10.6785 1.67761 10.9451 0.842822 10.8805 0C10.054 0.0868137 9.29047 0.481853 8.74214 1.10641C8.20595 1.71663 7.92692 2.53673 7.97967 3.34733C8.80652 3.35585 9.61939 2.97152 10.1375 2.32708Z" fill="#E5E5E5"/>
</svg>
