<svg width="16" height="16" viewBox="0 0 16 16" fill="none" xmlns="http://www.w3.org/2000/svg">
    <path d="M5.59961 11.9984L12.8965 9.77344" stroke="#50E3C2" stroke-width="0.6" stroke-linecap="round"
        stroke-linejoin="round" />
    <path
        d="M1.5 11.5V10.0688C1.5 6.47505 4.3875 3.51255 7.975 3.50005C8.83069 3.49676 9.67862 3.66246 10.4701 3.98764C11.2616 4.31282 11.9811 4.79108 12.5874 5.39499C13.1936 5.9989 13.6746 6.71657 14.0028 7.50682C14.3311 8.29707 14.5 9.14435 14.5 10V11.5C14.5 11.6327 14.4473 11.7598 14.3536 11.8536C14.2598 11.9474 14.1326 12 14 12H2C1.86739 12 1.74021 11.9474 1.64645 11.8536C1.55268 11.7598 1.5 11.6327 1.5 11.5Z"
        stroke="#4A4B4D" stroke-width="0.6" stroke-linecap="round" stroke-linejoin="round" />
    <path d="M8 3.5V5.5" stroke="#4A4B4D" stroke-width="0.6" stroke-linecap="round" stroke-linejoin="round" />
    <path d="M1.71875 8.32031L3.65625 8.83906" stroke="#4A4B4D" stroke-width="0.6" stroke-linecap="round"
        stroke-linejoin="round" />
    <path d="M14.2812 8.32031L12.3438 8.83906" stroke="#4A4B4D" stroke-width="0.6" stroke-linecap="round"
        stroke-linejoin="round" />
</svg>