<svg width="24" height="24" viewBox="0 0 24 24" fill="none" xmlns="http://www.w3.org/2000/svg">
<path d="M2.45208 10.8703C2.45208 10.8703 4.62202 7.58712 8.95467 7.24746V6.05633C4.15571 6.45156 0 10.6196 0 10.6196C0 10.6196 2.35373 17.5972 8.95467 18.2361V16.97C4.11058 16.3451 2.45208 10.8703 2.45208 10.8703ZM8.95467 14.4521V15.6116C5.29362 14.9422 4.2774 11.0396 4.2774 11.0396C4.2774 11.0396 6.03522 9.04265 8.95467 8.71882V9.99113C8.95245 9.99113 8.95091 9.99043 8.94908 9.99043C7.41679 9.80187 6.21978 11.2698 6.21978 11.2698C6.21978 11.2698 6.8907 13.7409 8.95467 14.4521ZM8.95467 3.85938V6.05633C9.09554 6.04525 9.23642 6.03586 9.37807 6.03092C14.834 5.84235 18.3889 10.6196 18.3889 10.6196C18.3889 10.6196 14.3059 15.7108 10.0523 15.7108C9.66243 15.7108 9.29746 15.6738 8.95467 15.6115V16.97C9.2478 17.0082 9.55173 17.0306 9.86887 17.0306C13.8272 17.0306 16.6898 14.9576 19.4616 12.504C19.9211 12.8814 21.8026 13.7997 22.1893 14.2016C19.5539 16.4643 13.4117 18.2883 9.92952 18.2883C9.59387 18.2883 9.27152 18.2674 8.95467 18.2361V20.1451H24V3.85938H8.95467ZM8.95467 8.71882V7.24746C9.0941 7.23747 9.23459 7.22986 9.37807 7.22521C13.3014 7.09884 15.8754 10.6826 15.8754 10.6826C15.8754 10.6826 13.0952 14.6421 10.1144 14.6421C9.68538 14.6421 9.30083 14.5714 8.95467 14.4521V9.99113C10.482 10.1804 10.7893 10.8723 11.7076 12.442L13.7499 10.6761C13.7499 10.6761 12.259 8.67106 9.74593 8.67106C9.47276 8.67096 9.21135 8.69063 8.95467 8.71882Z" fill="#77B900"/>
</svg>
