<svg width="32" height="32" viewBox="0 0 32 32" fill="none" xmlns="http://www.w3.org/2000/svg">
<rect width="32" height="32" rx="6" fill="#0A0A0A" fill-opacity="0.3"/>
<g clip-path="url(#clip0_2917_12945)">
<path d="M16 25C20.9706 25 25 20.9706 25 16C25 11.0294 20.9706 7 16 7C11.0294 7 7 11.0294 7 16C7 20.9706 11.0294 25 16 25Z" fill="#E64A1D"/>
<path fill-rule="evenodd" clip-rule="evenodd" d="M16.0012 12.4912C14.0627 12.4912 12.4912 14.0627 12.4912 16.0012C12.4912 17.9398 14.0627 19.5112 16.0012 19.5112C17.9398 19.5112 19.5112 17.9398 19.5112 16.0012C19.5112 14.0627 17.9398 12.4912 16.0012 12.4912ZM10.7812 16.0012C10.7812 13.1183 13.1183 10.7812 16.0012 10.7812C18.8842 10.7812 21.2212 13.1183 21.2212 16.0012C21.2212 18.8842 18.8842 21.2212 16.0012 21.2212C13.1183 21.2212 10.7812 18.8842 10.7812 16.0012Z" fill="white"/>
<path d="M9.87893 17.6875C10.8109 17.6875 11.5664 16.932 11.5664 16C11.5664 15.068 10.8109 14.3125 9.87893 14.3125C8.94693 14.3125 8.19141 15.068 8.19141 16C8.19141 16.932 8.94693 17.6875 9.87893 17.6875Z" fill="#E64A1D"/>
<path fill-rule="evenodd" clip-rule="evenodd" d="M21.3984 16.3194H19.3984V15.6719H21.3984V16.3194Z" fill="#E64A1D"/>
<path d="M9.87727 17.1999C10.5408 17.1999 11.0788 16.6619 11.0788 15.9984C11.0788 15.3348 10.5408 14.7969 9.87727 14.7969C9.21371 14.7969 8.67578 15.3348 8.67578 15.9984C8.67578 16.6619 9.21371 17.1999 9.87727 17.1999Z" fill="white"/>
<path d="M17.6006 9.85204C17.1346 10.6592 17.4111 11.6912 18.2182 12.1572C19.0254 12.6232 20.0574 12.3467 20.5234 11.5396C20.9894 10.7324 20.7129 9.70036 19.9058 9.23437C19.0986 8.76837 18.0666 9.04491 17.6006 9.85204Z" fill="#E64A1D"/>
<path fill-rule="evenodd" clip-rule="evenodd" d="M13.0212 20.5098L14.0212 18.7778L14.582 19.1016L13.582 20.8336L13.0212 20.5098Z" fill="#E64A1D"/>
<path d="M18.0213 10.0968C17.6896 10.6715 17.8865 11.4063 18.4611 11.7381C19.0358 12.0699 19.7706 11.873 20.1024 11.2983C20.4342 10.7237 20.2373 9.98885 19.6626 9.65707C19.0879 9.32529 18.3531 9.52218 18.0213 10.0968Z" fill="white"/>
<path d="M20.5244 20.4604C20.0584 19.6533 19.0264 19.3767 18.2192 19.8427C17.4121 20.3087 17.1356 21.3408 17.6016 22.1479C18.0675 22.9551 19.0996 23.2316 19.9067 22.7656C20.7139 22.2996 20.9904 21.2675 20.5244 20.4604Z" fill="#E64A1D"/>
<path fill-rule="evenodd" clip-rule="evenodd" d="M13.5842 11.1629L14.5842 12.895L14.0234 13.2188L13.0234 11.4867L13.5842 11.1629Z" fill="#E64A1D"/>
<path d="M20.1053 20.7033C19.7735 20.1286 19.0387 19.9317 18.464 20.2635C17.8894 20.5953 17.6925 21.3301 18.0243 21.9048C18.356 22.4795 19.0909 22.6763 19.6655 22.3446C20.2402 22.0128 20.4371 21.278 20.1053 20.7033Z" fill="white"/>
</g>
<defs>
<clipPath id="clip0_2917_12945">
<rect width="18" height="18" fill="white" transform="translate(7 7)"/>
</clipPath>
</defs>
</svg>
