<svg width="24" height="24" viewBox="0 0 24 24" fill="none" xmlns="http://www.w3.org/2000/svg">
<path d="M12 10.125V13.25" stroke="#F5A622" stroke-linecap="round" stroke-linejoin="round"/>
<path d="M10.9214 5.1252L4.04638 17.0002C3.93685 17.1899 3.8791 17.4051 3.87891 17.6241C3.87871 17.8431 3.93608 18.0584 4.04527 18.2483C4.15446 18.4382 4.31164 18.5961 4.50105 18.7061C4.69046 18.8161 4.90546 18.8744 5.1245 18.8752H18.8745C19.0936 18.8744 19.3085 18.8161 19.498 18.7061C19.6874 18.5961 19.8445 18.4382 19.9537 18.2483C20.0629 18.0584 20.1203 17.8431 20.1201 17.6241C20.1199 17.4051 20.0622 17.1899 19.9526 17.0002L13.0776 5.1252C12.9689 4.93525 12.812 4.77739 12.6226 4.66761C12.4333 4.55782 12.2184 4.5 11.9995 4.5C11.7807 4.5 11.5657 4.55782 11.3764 4.66761C11.187 4.77739 11.0301 4.93525 10.9214 5.1252V5.1252Z" stroke="#F5A622" stroke-linecap="round" stroke-linejoin="round"/>
<path d="M12 16.6875C12.3452 16.6875 12.625 16.4077 12.625 16.0625C12.625 15.7173 12.3452 15.4375 12 15.4375C11.6548 15.4375 11.375 15.7173 11.375 16.0625C11.375 16.4077 11.6548 16.6875 12 16.6875Z" fill="#F5A622"/>
</svg>
