<svg width="272" height="182" viewBox="0 0 272 182" fill="none" xmlns="http://www.w3.org/2000/svg">
<path d="M176.598 151.772C133.092 174.343 79.4587 165.417 57.041 131.875C65.0489 160.693 106.87 165.729 150.446 143.123C172.864 176.661 184.597 180.542 176.602 151.768L176.598 151.772Z" stroke="url(#paint0_linear_2671_9873)" stroke-width="0.5" stroke-miterlimit="10"/>
<path d="M131.25 164.102C135.291 178.634 156.379 181.176 178.358 169.774" stroke="url(#paint1_linear_2671_9873)" stroke-width="0.5" stroke-miterlimit="10"/>
<path d="M88.332 156.961C95.2473 181.841 131.347 186.188 168.964 166.672" stroke="url(#paint2_linear_2671_9873)" stroke-width="0.5" stroke-miterlimit="10"/>
<path d="M176.598 151.773C143.066 185.785 97.5505 186.167 75.1328 152.625" stroke="url(#paint3_linear_2671_9873)" stroke-width="0.5" stroke-miterlimit="10"/>
<path d="M176.598 151.773C161.543 188.011 131.056 190.202 108.639 156.664" stroke="url(#paint4_linear_2671_9873)" stroke-width="0.5" stroke-miterlimit="10"/>
<path d="M176.598 151.771C184.592 180.545 172.859 176.664 150.441 143.126C194.018 120.52 222.85 78.8339 214.842 50.0156C237.26 83.5535 220.104 129.204 176.598 151.771Z" stroke="url(#paint5_linear_2671_9873)" stroke-width="0.5" stroke-miterlimit="10"/>
<path d="M178.354 169.772C200.332 158.37 214.874 137.345 210.833 122.812" stroke="url(#paint6_linear_2671_9873)" stroke-width="0.5" stroke-miterlimit="10"/>
<path d="M168.969 166.672C206.586 147.157 231.479 111.169 224.563 86.2891" stroke="url(#paint7_linear_2671_9873)" stroke-width="0.5" stroke-miterlimit="10"/>
<path d="M176.598 151.77C205.461 165.223 210.705 148.882 188.287 115.344" stroke="url(#paint8_linear_2671_9873)" stroke-width="0.5" stroke-miterlimit="10"/>
<path d="M176.598 151.77C218.204 146.805 233.807 115.475 211.389 81.9375" stroke="url(#paint9_linear_2671_9873)" stroke-width="0.5" stroke-miterlimit="10"/>
<path d="M176.598 151.77C220.104 129.199 237.26 83.5525 214.843 50.0146C206.835 21.1964 165.014 16.1606 121.438 38.7665C143.855 72.3044 168.599 123 176.598 151.774V151.77Z" stroke="url(#paint10_linear_2671_9873)" stroke-width="0.5" stroke-miterlimit="10"/>
<path d="M210.833 122.812C206.792 108.28 185.704 105.738 163.725 117.14" stroke="url(#paint11_linear_2671_9873)" stroke-width="0.5" stroke-miterlimit="10"/>
<path d="M224.562 86.2868C217.646 61.4067 181.547 57.0602 143.93 76.5754" stroke="url(#paint12_linear_2671_9873)" stroke-width="0.5" stroke-miterlimit="10"/>
<path d="M176.598 151.77C210.13 117.758 219.169 62.8035 196.751 29.2656" stroke="url(#paint13_linear_2671_9873)" stroke-width="0.5" stroke-miterlimit="10"/>
<path d="M176.599 151.77C191.654 115.532 185.66 58.7688 163.242 25.2266" stroke="url(#paint14_linear_2671_9873)" stroke-width="0.5" stroke-miterlimit="10"/>
<path d="M176.599 151.773C168.604 122.999 143.857 72.3035 121.439 38.7656C77.8673 61.3715 49.0345 103.058 57.0424 131.876C79.4601 165.414 133.093 174.34 176.599 151.773Z" stroke="url(#paint15_linear_2671_9873)" stroke-width="0.5" stroke-miterlimit="10"/>
<path d="M163.73 117.141C141.751 128.542 127.209 149.568 131.25 164.1" stroke="url(#paint16_linear_2671_9873)" stroke-width="0.5" stroke-miterlimit="10"/>
<path d="M143.926 76.5781C106.308 96.0932 81.4158 132.081 88.3311 156.961" stroke="url(#paint17_linear_2671_9873)" stroke-width="0.5" stroke-miterlimit="10"/>
<path d="M176.599 151.772C147.735 138.32 106.015 100.089 83.5977 66.5469" stroke="url(#paint18_linear_2671_9873)" stroke-width="0.5" stroke-miterlimit="10"/>
<path d="M176.598 151.772C134.992 156.738 82.9119 133.491 60.4941 99.9531" stroke="url(#paint19_linear_2671_9873)" stroke-width="0.5" stroke-miterlimit="10"/>
<path d="M57.0416 131.872C34.6239 98.3389 51.7805 52.688 95.2908 30.1172C103.286 58.8915 128.033 109.587 150.447 143.12C106.87 165.726 65.0539 160.691 57.0416 131.872Z" stroke="url(#paint20_linear_2671_9873)" stroke-width="0.5" stroke-miterlimit="10"/>
<path d="M47.3262 95.6094C54.2415 120.489 90.3407 124.836 127.958 105.321" stroke="url(#paint21_linear_2671_9873)" stroke-width="0.5" stroke-miterlimit="10"/>
<path d="M75.1337 152.621C52.716 119.083 61.7551 64.1292 95.2873 30.1172" stroke="url(#paint22_linear_2671_9873)" stroke-width="0.5" stroke-miterlimit="10"/>
<path d="M108.643 156.656C86.2252 123.118 80.2357 66.3551 95.2906 30.1172" stroke="url(#paint23_linear_2671_9873)" stroke-width="0.5" stroke-miterlimit="10"/>
<path d="M150.447 143.127C128.029 109.589 103.286 58.894 95.291 30.1241C138.797 7.55327 192.43 16.4789 214.848 50.0167C222.856 78.835 194.023 120.521 150.447 143.127Z" stroke="url(#paint24_linear_2671_9873)" stroke-width="0.5" stroke-miterlimit="10"/>
<path d="M127.959 105.32C165.576 85.8053 190.469 49.8176 183.554 24.9375" stroke="url(#paint25_linear_2671_9873)" stroke-width="0.5" stroke-miterlimit="10"/>
<path d="M188.288 115.346C165.871 81.8082 124.151 43.577 95.2871 30.125" stroke="url(#paint26_linear_2671_9873)" stroke-width="0.5" stroke-miterlimit="10"/>
<path d="M211.395 81.9407C188.977 48.4028 136.893 25.1559 95.291 30.1213" stroke="url(#paint27_linear_2671_9873)" stroke-width="0.5" stroke-miterlimit="10"/>
<path d="M214.843 50.0169C192.429 16.4834 138.796 7.55781 95.2903 30.1242C87.2955 1.34985 99.0287 5.23092 121.442 38.7688C165.018 16.1629 206.835 21.1986 214.847 50.0169H214.843Z" stroke="url(#paint28_linear_2671_9873)" stroke-width="0.5" stroke-miterlimit="10"/>
<path d="M183.554 24.9353C176.638 0.0551358 140.539 -4.29131 102.922 15.2238" stroke="url(#paint29_linear_2671_9873)" stroke-width="0.5" stroke-miterlimit="10"/>
<path d="M196.753 29.2725C174.335 -4.26541 128.819 -3.88345 95.2871 30.1286" stroke="url(#paint30_linear_2671_9873)" stroke-width="0.5" stroke-miterlimit="10"/>
<path d="M163.246 25.2332C140.829 -8.30471 110.346 -6.11392 95.291 30.124" stroke="url(#paint31_linear_2671_9873)" stroke-width="0.5" stroke-miterlimit="10"/>
<path d="M121.443 38.767C99.0249 5.22913 87.2917 1.35245 95.2908 30.1224C51.7805 52.6932 34.6239 98.3441 57.0416 131.878C49.0337 103.059 77.8665 61.3729 121.443 38.767Z" stroke="url(#paint32_linear_2671_9873)" stroke-width="0.5" stroke-miterlimit="10"/>
<path d="M102.922 15.2266C65.3044 34.7417 40.4119 70.7294 47.3272 95.6095" stroke="url(#paint33_linear_2671_9873)" stroke-width="0.5" stroke-miterlimit="10"/>
<path d="M83.5972 66.5448C61.1795 33.0069 66.423 16.666 95.2865 30.118" stroke="url(#paint34_linear_2671_9873)" stroke-width="0.5" stroke-miterlimit="10"/>
<path d="M60.4941 99.9501C38.0763 66.4122 53.684 35.0871 95.29 30.1172" stroke="url(#paint35_linear_2671_9873)" stroke-width="0.5" stroke-miterlimit="10"/>
<path d="M49.2882 115.069C50.2667 118.112 51.5831 122.169 52.7415 125.145C53.5269 127.174 54.852 129.76 55.7603 131.735C57.1074 134.672 59.376 138.36 61.2013 141.03V141.034C63.6585 144.625 67.3224 149.147 70.2053 152.409C72.1184 154.574 74.9179 157.252 77.1469 159.092C80.3588 161.739 84.7862 165.133 88.3316 167.323C90.0692 168.399 92.4343 169.76 94.2509 170.7C96.2649 171.74 98.9767 173.079 101.087 173.905C104.4 175.2 108.854 176.89 112.307 177.751C114.119 178.203 116.528 178.839 118.367 179.169C121.127 179.665 124.826 180.279 127.621 180.508C129.336 180.648 131.631 180.819 133.351 180.854C135.585 180.898 138.564 180.92 140.789 180.762C143.904 180.538 148.046 180.051 151.14 179.603C152.864 179.357 155.137 178.844 156.835 178.44C158.371 178.075 160.411 177.557 161.908 177.07C164.497 176.227 167.928 175.02 170.46 174.006C171.745 173.492 173.439 172.737 174.685 172.118C176.647 171.147 179.24 169.8 181.135 168.711C186.462 165.655 190.784 162.244 191.526 161.66C192.509 160.887 193.79 159.825 194.742 159.004C195.695 158.183 196.879 157.068 197.845 156.189C198.81 155.311 199.995 154.1 200.925 153.112C201.855 152.124 203.066 150.803 203.961 149.762C204.856 148.722 205.975 147.303 206.862 146.219C207.748 145.135 208.814 143.594 209.635 142.456C210.569 141.157 211.723 139.357 212.557 137.991C213.474 136.486 214.668 134.453 215.466 132.881C216.208 131.424 217.204 129.483 217.862 127.986C218.731 126.01 219.863 123.358 220.565 121.317C221.149 119.622 221.938 117.361 222.399 115.631C223.11 112.971 224.031 109.406 224.475 106.688C225.102 102.829 225.69 97.6354 225.831 93.7324C225.967 90.0796 225.857 85.1843 225.392 81.5623C224.738 76.4432 224.304 73.0626 222.592 66.8195C221.451 62.6575 219.398 57.2529 217.647 53.3104C217.213 52.3357 216.616 51.0362 216.094 50.101C214.523 47.2956 212.469 43.5287 210.679 40.8594C208.257 37.2417 204.549 32.7504 201.675 29.484C199.766 27.3151 196.967 24.637 194.734 22.8018C191.517 20.1545 187.085 16.7739 183.549 14.5699C181.816 13.4899 179.446 12.1333 177.63 11.1938C175.616 10.1532 172.869 8.89322 170.793 7.98881C167.529 6.57072 163.009 5.06044 159.573 4.14286C154.944 2.90478 145.58 0.643748 132.908 1.04766C130.789 1.11352 127.963 1.33742 125.852 1.56133C124.027 1.7589 121.605 2.11013 119.802 2.45257C116.963 2.99259 113.224 3.93651 110.433 4.68287C108.972 5.07361 107.072 5.7629 105.642 6.25023C103.11 7.11074 98.358 9.10395 94.5449 11.0972C93.3909 11.6987 91.8288 12.5196 90.745 13.1826C89.6612 13.8455 88.1868 14.7192 87.1294 15.3997C86.0719 16.0802 84.6634 17.0066 83.6673 17.7529C82.6713 18.4993 81.3373 19.4652 80.3545 20.2379C79.3716 21.0106 78.1166 22.0862 77.1381 22.894C76.1596 23.7019 74.9223 24.8609 74.0052 25.739C72.1316 27.539 69.7665 30.0854 68.0201 32.0172C67.0679 33.0709 65.8744 34.5416 65.0188 35.6744C62.4958 39.0154 60.315 41.8999 56.7871 48.3098C55.8832 49.9474 54.7818 52.1909 54.0183 53.9031C53.1408 55.8744 52.035 58.5349 51.3154 60.572C50.7187 62.2623 49.942 64.5277 49.4813 66.2575C48.7704 68.9181 47.9236 72.4962 47.4058 75.2007C46.673 79.0422 46.1947 84.2536 46.0499 88.1566C45.9139 91.8094 46.0543 96.7002 46.4887 100.327C46.7388 102.399 47.0899 105.165 47.4804 107.22C47.9323 109.595 48.652 112.738 49.2882 115.069ZM49.2882 115.069C50.9029 120.882 53.4699 126.533 57.0416 131.876M57.0416 131.876C79.4593 165.414 133.093 174.339 176.598 151.773C133.093 174.344 79.4593 165.418 57.0416 131.876Z" stroke="url(#paint36_linear_2671_9873)" stroke-width="0.5" stroke-miterlimit="10"/>
<defs>
<linearGradient id="paint0_linear_2671_9873" x1="94.9395" y1="30.499" x2="175.439" y2="150.999" gradientUnits="userSpaceOnUse">
<stop stop-color="#BEE0D8"/>
<stop offset="1" stop-color="#50E3C2"/>
</linearGradient>
<linearGradient id="paint1_linear_2671_9873" x1="94.9414" y1="31.5005" x2="177.941" y2="152" gradientUnits="userSpaceOnUse">
<stop stop-color="#BEE0D8"/>
<stop offset="1" stop-color="#50E3C2"/>
</linearGradient>
<linearGradient id="paint2_linear_2671_9873" x1="94.4414" y1="30.5029" x2="176.441" y2="152.503" gradientUnits="userSpaceOnUse">
<stop stop-color="#BEE0D8"/>
<stop offset="1" stop-color="#50E3C2"/>
</linearGradient>
<linearGradient id="paint3_linear_2671_9873" x1="95.4414" y1="29.5005" x2="176.941" y2="152" gradientUnits="userSpaceOnUse">
<stop stop-color="#BEE0D8"/>
<stop offset="1" stop-color="#50E3C2"/>
</linearGradient>
<linearGradient id="paint4_linear_2671_9873" x1="93.9394" y1="30.5005" x2="176.939" y2="152" gradientUnits="userSpaceOnUse">
<stop stop-color="#BEE0D8"/>
<stop offset="1" stop-color="#50E3C2"/>
</linearGradient>
<linearGradient id="paint5_linear_2671_9873" x1="93.9414" y1="29.498" x2="175.941" y2="151.498" gradientUnits="userSpaceOnUse">
<stop stop-color="#BEE0D8"/>
<stop offset="1" stop-color="#50E3C2"/>
</linearGradient>
<linearGradient id="paint6_linear_2671_9873" x1="95.4395" y1="30.9985" x2="177.939" y2="152.999" gradientUnits="userSpaceOnUse">
<stop stop-color="#BEE0D8"/>
<stop offset="1" stop-color="#50E3C2"/>
</linearGradient>
<linearGradient id="paint7_linear_2671_9873" x1="94.4414" y1="30.0029" x2="176.441" y2="151.503" gradientUnits="userSpaceOnUse">
<stop stop-color="#BEE0D8"/>
<stop offset="1" stop-color="#50E3C2"/>
</linearGradient>
<linearGradient id="paint8_linear_2671_9873" x1="96.4414" y1="30.4976" x2="176.941" y2="151.998" gradientUnits="userSpaceOnUse">
<stop stop-color="#BEE0D8"/>
<stop offset="1" stop-color="#50E3C2"/>
</linearGradient>
<linearGradient id="paint9_linear_2671_9873" x1="95.4414" y1="29.9976" x2="176.941" y2="151.998" gradientUnits="userSpaceOnUse">
<stop stop-color="#BEE0D8"/>
<stop offset="1" stop-color="#50E3C2"/>
</linearGradient>
<linearGradient id="paint10_linear_2671_9873" x1="96.4414" y1="31.4971" x2="176.941" y2="151.997" gradientUnits="userSpaceOnUse">
<stop stop-color="#BEE0D8"/>
<stop offset="1" stop-color="#50E3C2"/>
</linearGradient>
<linearGradient id="paint11_linear_2671_9873" x1="95.9434" y1="30.4981" x2="176.943" y2="151.498" gradientUnits="userSpaceOnUse">
<stop stop-color="#BEE0D8"/>
<stop offset="1" stop-color="#50E3C2"/>
</linearGradient>
<linearGradient id="paint12_linear_2671_9873" x1="95.9414" y1="31.5005" x2="177.441" y2="152.5" gradientUnits="userSpaceOnUse">
<stop stop-color="#BEE0D8"/>
<stop offset="1" stop-color="#50E3C2"/>
</linearGradient>
<linearGradient id="paint13_linear_2671_9873" x1="96.4414" y1="28.9966" x2="176.941" y2="151.997" gradientUnits="userSpaceOnUse">
<stop stop-color="#BEE0D8"/>
<stop offset="1" stop-color="#50E3C2"/>
</linearGradient>
<linearGradient id="paint14_linear_2671_9873" x1="95.4414" y1="30.9971" x2="176.941" y2="151.997" gradientUnits="userSpaceOnUse">
<stop stop-color="#BEE0D8"/>
<stop offset="1" stop-color="#50E3C2"/>
</linearGradient>
<linearGradient id="paint15_linear_2671_9873" x1="95.9414" y1="30.5005" x2="176.941" y2="153" gradientUnits="userSpaceOnUse">
<stop stop-color="#BEE0D8"/>
<stop offset="1" stop-color="#50E3C2"/>
</linearGradient>
<linearGradient id="paint16_linear_2671_9873" x1="95.9434" y1="30.5034" x2="177.443" y2="151.503" gradientUnits="userSpaceOnUse">
<stop stop-color="#BEE0D8"/>
<stop offset="1" stop-color="#50E3C2"/>
</linearGradient>
<linearGradient id="paint17_linear_2671_9873" x1="94.9395" y1="30.5034" x2="176.439" y2="152.003" gradientUnits="userSpaceOnUse">
<stop stop-color="#BEE0D8"/>
<stop offset="1" stop-color="#50E3C2"/>
</linearGradient>
<linearGradient id="paint18_linear_2671_9873" x1="95.4414" y1="30.4995" x2="176.941" y2="152" gradientUnits="userSpaceOnUse">
<stop stop-color="#BEE0D8"/>
<stop offset="1" stop-color="#50E3C2"/>
</linearGradient>
<linearGradient id="paint19_linear_2671_9873" x1="96.4395" y1="30.4995" x2="176.939" y2="152" gradientUnits="userSpaceOnUse">
<stop stop-color="#BEE0D8"/>
<stop offset="1" stop-color="#50E3C2"/>
</linearGradient>
<linearGradient id="paint20_linear_2671_9873" x1="95.9395" y1="29.9966" x2="176.939" y2="152.997" gradientUnits="userSpaceOnUse">
<stop stop-color="#BEE0D8"/>
<stop offset="1" stop-color="#50E3C2"/>
</linearGradient>
<linearGradient id="paint21_linear_2671_9873" x1="96.4395" y1="30.0024" x2="177.439" y2="152.502" gradientUnits="userSpaceOnUse">
<stop stop-color="#BEE0D8"/>
<stop offset="1" stop-color="#50E3C2"/>
</linearGradient>
<linearGradient id="paint22_linear_2671_9873" x1="94.9414" y1="29.9966" x2="177.941" y2="152.997" gradientUnits="userSpaceOnUse">
<stop stop-color="#BEE0D8"/>
<stop offset="1" stop-color="#50E3C2"/>
</linearGradient>
<linearGradient id="paint23_linear_2671_9873" x1="95.4414" y1="29.9966" x2="176.441" y2="151.997" gradientUnits="userSpaceOnUse">
<stop stop-color="#BEE0D8"/>
<stop offset="1" stop-color="#50E3C2"/>
</linearGradient>
<linearGradient id="paint24_linear_2671_9873" x1="94.9434" y1="31.499" x2="177.443" y2="152.999" gradientUnits="userSpaceOnUse">
<stop stop-color="#BEE0D8"/>
<stop offset="1" stop-color="#50E3C2"/>
</linearGradient>
<linearGradient id="paint25_linear_2671_9873" x1="95.9434" y1="30.502" x2="176.443" y2="153.002" gradientUnits="userSpaceOnUse">
<stop stop-color="#BEE0D8"/>
<stop offset="1" stop-color="#50E3C2"/>
</linearGradient>
<linearGradient id="paint26_linear_2671_9873" x1="94.9434" y1="30" x2="177.443" y2="153" gradientUnits="userSpaceOnUse">
<stop stop-color="#BEE0D8"/>
<stop offset="1" stop-color="#50E3C2"/>
</linearGradient>
<linearGradient id="paint27_linear_2671_9873" x1="95.9434" y1="31.001" x2="177.443" y2="153.501" gradientUnits="userSpaceOnUse">
<stop stop-color="#BEE0D8"/>
<stop offset="1" stop-color="#50E3C2"/>
</linearGradient>
<linearGradient id="paint28_linear_2671_9873" x1="96.4395" y1="30.0034" x2="176.439" y2="151.003" gradientUnits="userSpaceOnUse">
<stop stop-color="#BEE0D8"/>
<stop offset="1" stop-color="#50E3C2"/>
</linearGradient>
<linearGradient id="paint29_linear_2671_9873" x1="95.4414" y1="29.9995" x2="176.941" y2="152" gradientUnits="userSpaceOnUse">
<stop stop-color="#BEE0D8"/>
<stop offset="1" stop-color="#50E3C2"/>
</linearGradient>
<linearGradient id="paint30_linear_2671_9873" x1="94.9434" y1="30.0034" x2="176.943" y2="152.003" gradientUnits="userSpaceOnUse">
<stop stop-color="#BEE0D8"/>
<stop offset="1" stop-color="#50E3C2"/>
</linearGradient>
<linearGradient id="paint31_linear_2671_9873" x1="94.9434" y1="30.0034" x2="176.443" y2="152.503" gradientUnits="userSpaceOnUse">
<stop stop-color="#BEE0D8"/>
<stop offset="1" stop-color="#50E3C2"/>
</linearGradient>
<linearGradient id="paint32_linear_2671_9873" x1="93.4395" y1="30.002" x2="176.439" y2="152.002" gradientUnits="userSpaceOnUse">
<stop stop-color="#BEE0D8"/>
<stop offset="1" stop-color="#50E3C2"/>
</linearGradient>
<linearGradient id="paint33_linear_2671_9873" x1="95.4434" y1="29.0024" x2="177.943" y2="154.502" gradientUnits="userSpaceOnUse">
<stop stop-color="#BEE0D8"/>
<stop offset="1" stop-color="#50E3C2"/>
</linearGradient>
<linearGradient id="paint34_linear_2671_9873" x1="94.9434" y1="30.4976" x2="176.443" y2="151.998" gradientUnits="userSpaceOnUse">
<stop stop-color="#BEE0D8"/>
<stop offset="1" stop-color="#50E3C2"/>
</linearGradient>
<linearGradient id="paint35_linear_2671_9873" x1="94.9414" y1="29.9966" x2="177.941" y2="152.497" gradientUnits="userSpaceOnUse">
<stop stop-color="#BEE0D8"/>
<stop offset="1" stop-color="#50E3C2"/>
</linearGradient>
<linearGradient id="paint36_linear_2671_9873" x1="94.9414" y1="30.5" x2="177.441" y2="151.5" gradientUnits="userSpaceOnUse">
<stop stop-color="#BEE0D8"/>
<stop offset="1" stop-color="#50E3C2"/>
</linearGradient>
</defs>
</svg>
