<svg width="32" height="32" viewBox="0 0 32 32" fill="none" xmlns="http://www.w3.org/2000/svg">
    <rect x="0.5" y="0.5" width="31" height="31" rx="15.5" stroke="white" stroke-opacity="0.1" />
    <path d="M13.75 22.75H18.25" stroke="#E5E5E5" stroke-linecap="round" stroke-linejoin="round" />
    <path
        d="M10.9515 14.3126C10.9506 13.6457 11.0816 12.9853 11.337 12.3693C11.5924 11.7532 11.9672 11.1938 12.4397 10.7233C12.9122 10.2527 13.4731 9.8803 14.0902 9.62747C14.7073 9.37463 15.3683 9.24637 16.0351 9.25008C18.8195 9.27117 21.0484 11.5845 21.0484 14.3759V14.8751C21.0484 17.3923 21.5758 18.8548 22.0398 19.6563C22.0891 19.7417 22.1151 19.8385 22.1152 19.9371C22.1153 20.0357 22.0894 20.1325 22.0403 20.218C21.9912 20.3034 21.9204 20.3745 21.8352 20.424C21.75 20.4735 21.6532 20.4997 21.5547 20.5001H10.4453C10.3467 20.4997 10.25 20.4735 10.1647 20.424C10.0795 20.3745 10.0088 20.3034 9.95963 20.218C9.9105 20.1325 9.88468 20.0357 9.88477 19.9371C9.88485 19.8385 9.91084 19.7417 9.96013 19.6563C10.4242 18.8548 10.9515 17.3923 10.9515 14.8751V14.3126Z"
        stroke="#E5E5E5" stroke-linecap="round" stroke-linejoin="round" />
</svg>